<?xml version="1.0" encoding="UTF-8" standalone="no"?>
<!-- Created with Inkscape (http://www.inkscape.org/) -->

<svg
   width="112.76659mm"
   height="134.89612mm"
   viewBox="0 0 112.76659 134.89612"
   version="1.1"
   id="svg14789"
   xml:space="preserve"
   inkscape:version="1.2.2 (b0a8486541, 2022-12-01)"
   sodipodi:docname="screw_schematic.svg"
   xmlns:inkscape="http://www.inkscape.org/namespaces/inkscape"
   xmlns:sodipodi="http://sodipodi.sourceforge.net/DTD/sodipodi-0.dtd"
   xmlns="http://www.w3.org/2000/svg"
   xmlns:svg="http://www.w3.org/2000/svg"
   xmlns:rdf="http://www.w3.org/1999/02/22-rdf-syntax-ns#"
   xmlns:cc="http://creativecommons.org/ns#"
   xmlns:dc="http://purl.org/dc/elements/1.1/"><title
     id="title16068">Screw - schematic</title><sodipodi:namedview
     id="namedview14791"
     pagecolor="#ffffff"
     bordercolor="#666666"
     borderopacity="1.0"
     inkscape:showpageshadow="2"
     inkscape:pageopacity="0.0"
     inkscape:pagecheckerboard="0"
     inkscape:deskcolor="#d1d1d1"
     inkscape:document-units="mm"
     showgrid="false"
     inkscape:zoom="1.1893044"
     inkscape:cx="169.84718"
     inkscape:cy="252.6687"
     inkscape:window-width="1918"
     inkscape:window-height="1078"
     inkscape:window-x="0"
     inkscape:window-y="0"
     inkscape:window-maximized="1"
     inkscape:current-layer="layer1" /><defs
     id="defs14786" /><g
     inkscape:label="main"
     inkscape:groupmode="layer"
     id="layer1"
     transform="translate(118.93468,-62.865266)"><path
       id="b6"
       style="color:#000000;fill:#000000;-inkscape-stroke:none"
       inkscape:label="b6"
       d="M -91.554993 -194.09589 C -93.417944 -194.29383 -94.88075 -195.93614 -94.88075 -197.8086 L -94.88075 -203.1659 C -94.88075 -205.16319 -93.216481 -206.89839 -91.177421 -206.89839 L -87.458469 -206.89842 C -87.844552 -206.36275 -88.073 -205.70056 -88.073 -204.96653 L -88.073 -203.29324 L -91.178463 -204.06407 C -91.895096 -204.2419 -92.472102 -203.79528 -92.472102 -203.06238 L -92.472102 -197.70405 C -92.472102 -196.97116 -91.895096 -196.23774 -91.178463 -196.0599 L -88.073 -195.28908 L -88.073 -194.07572 L -91.177421 -194.07592 C -91.304862 -194.07592 -91.430796 -194.08289 -91.554993 -194.09589 z "
       transform="matrix(0.99227254,0.12407743,0,-1,0,0)" /><path
       id="b5"
       style="color:#000000;fill:#000000;-inkscape-stroke:none"
       inkscape:label="b5"
       d="M -91.554993 -179.35364 C -93.417946 -179.55158 -94.88075 -181.19388 -94.88075 -183.06635 L -94.88075 -188.42365 C -94.88075 -190.42093 -93.216483 -192.15614 -91.177421 -192.15614 L -88.073 -192.15594 L -88.073 -187.33814 L -89.647865 -187.33821 L -91.178463 -187.71778 C -91.895096 -187.89561 -92.472102 -187.44846 -92.472102 -186.71557 L -92.472102 -181.35724 C -92.472102 -180.62434 -91.895096 -179.89145 -91.178463 -179.71362 L -89.646823 -179.3334 L -91.177421 -179.33366 C -91.304862 -179.33366 -91.430796 -179.34064 -91.554993 -179.35364 z M -38.004375 -179.33362 L -38.004375 -182.86467 L -34.898391 -182.09378 C -34.853601 -182.08267 -34.809181 -182.07432 -34.76559 -182.068 C -34.111718 -181.97325 -33.604752 -182.4089 -33.604752 -183.09599 L -33.604752 -188.45432 C -33.604752 -189.18721 -34.181756 -189.92011 -34.898391 -190.09794 L -38.004375 -190.86883 L -38.004375 -192.15609 L -34.898391 -192.15622 C -32.85933 -192.15622 -31.195063 -190.42082 -31.195062 -188.42353 L -31.195062 -183.06624 C -31.195062 -181.06894 -32.85933 -179.33374 -34.898391 -179.33374 L -38.004375 -179.33362 z "
       transform="matrix(0.99227254,0.12407743,0,-1,-2.0833335e-7,-1.2291666e-6)" /><path
       id="b4"
       style="color:#000000;fill:#000000;-inkscape-stroke:none"
       inkscape:label="b4"
       d="M -91.554993 -162.98875 C -93.417946 -163.18669 -94.88075 -164.82848 -94.88075 -166.70094 L -94.88075 -172.05824 C -94.88075 -174.05552 -93.216483 -175.79073 -91.177421 -175.79073 L -88.073 -175.79053 L -88.073 -170.97274 L -89.573392 -170.97287 L -91.178463 -171.37097 C -91.895096 -171.54881 -92.472102 -171.10217 -92.472102 -170.36928 L -92.472102 -165.01095 C -92.472102 -164.27805 -91.895096 -163.54465 -91.178463 -163.36681 L -89.573913 -162.96877 L -91.177421 -162.96877 C -91.304862 -162.96877 -91.430796 -162.97575 -91.554993 -162.98875 z M -38.004375 -162.96873 L -38.004375 -166.51838 L -34.898391 -165.74749 C -34.853601 -165.73638 -34.809181 -165.72751 -34.76559 -165.7212 C -34.111718 -165.62644 -33.604752 -166.06209 -33.604752 -166.74918 L -33.604752 -172.10751 C -33.604752 -172.84041 -34.181756 -173.57382 -34.898391 -173.75166 L -38.004375 -174.52254 L -38.004375 -175.79068 L -34.898391 -175.79081 C -32.85933 -175.79081 -31.195063 -174.05594 -31.195062 -172.05864 L -31.195062 -166.70083 C -31.195062 -164.70354 -32.85933 -162.96885 -34.898391 -162.96885 L -38.004375 -162.96873 z "
       transform="matrix(0.99227254,0.12407743,0,-1,-2.0833335e-7,-1.2291666e-6)" /><path
       id="b3"
       style="color:#000000;fill:#000000;-inkscape-stroke:none"
       inkscape:label="b3"
       d="M -91.554993 -146.62334 C -93.417946 -146.82128 -94.88075 -148.46306 -94.88075 -150.33553 L -94.88075 -155.69334 C -94.88075 -157.69063 -93.216483 -159.42584 -91.177421 -159.42584 L -88.073 -159.42564 L -88.073 -154.60733 L -89.496315 -154.60719 L -91.178463 -155.02468 C -91.895096 -155.20252 -92.472102 -154.75537 -92.472102 -154.02248 L -92.472102 -148.66415 C -92.472102 -147.93126 -91.895096 -147.19836 -91.178463 -147.02052 L -89.496836 -146.6031 L -91.177421 -146.60336 C -91.304862 -146.60336 -91.430796 -146.61034 -91.554993 -146.62334 z M -38.004375 -146.60332 L -38.004375 -150.17158 L -34.898391 -149.40069 C -34.853601 -149.38957 -34.809181 -149.38071 -34.76559 -149.37439 C -34.111718 -149.27964 -33.604752 -149.71529 -33.604752 -150.40238 L -33.604752 -155.76122 C -33.604752 -156.49412 -34.181756 -157.22701 -34.898391 -157.40485 L -38.004375 -158.17574 L -38.004375 -159.42527 L -34.898391 -159.4254 C -32.85933 -159.4254 -31.195063 -157.69052 -31.195062 -155.69323 L -31.195062 -150.33593 C -31.195062 -148.33865 -32.85933 -146.60344 -34.898391 -146.60344 L -38.004375 -146.60332 z "
       transform="matrix(0.99227254,0.12407743,0,-1,-2.0833335e-7,-1.2291666e-6)" /><path
       id="b2"
       style="color:#000000;fill:#000000;-inkscape-stroke:none"
       inkscape:label="b2"
       d="M -91.554993 -130.25793 C -93.417946 -130.45587 -94.88075 -132.09818 -94.88075 -133.97064 L -94.88075 -139.32793 C -94.88075 -141.32523 -93.216483 -143.06043 -91.177421 -143.06043 L -88.073 -143.06023 L -88.073 -138.24243 L -89.423405 -138.24256 L -91.178463 -138.67788 C -91.895096 -138.85571 -92.472102 -138.40909 -92.472102 -137.67619 L -92.472102 -132.31786 C -92.472102 -131.58496 -91.895096 -130.85155 -91.178463 -130.67371 L -89.421843 -130.23768 L -91.177421 -130.23795 C -91.304862 -130.23795 -91.430796 -130.24493 -91.554993 -130.25793 z M -38.004375 -130.23791 L -38.004375 -133.82477 L -34.898391 -133.05388 C -34.853601 -133.04277 -34.809181 -133.03442 -34.76559 -133.0281 C -34.111718 -132.93335 -33.604752 -133.369 -33.604752 -134.05609 L -33.604752 -139.41442 C -33.604752 -140.14731 -34.181756 -140.88072 -34.898391 -141.05856 L -38.004375 -141.82945 L -38.004375 -143.06038 L -34.898391 -143.06051 C -32.85933 -143.06051 -31.195063 -141.32512 -31.195062 -139.32782 L -31.195062 -133.97052 C -31.195062 -131.97325 -32.85933 -130.23803 -34.898391 -130.23803 L -38.004375 -130.23791 z "
       transform="matrix(0.99227254,0.12407743,0,-1,-2.0833335e-7,-1.2291666e-6)" /><path
       id="b1"
       style="color:#000000;fill:#000000;-inkscape-stroke:none"
       inkscape:label="b1"
       d="M -94.59067 -116.18534 C -94.776989 -116.62729 -94.88075 -117.10808 -94.88075 -117.60523 L -94.88075 -122.96252 C -94.88075 -124.95982 -93.216481 -126.69502 -91.177421 -126.69502 L -88.073 -126.69482 L -88.073 -121.87702 L -90.062413 -121.87685 L -90.062413 -118.691 L -88.073 -118.69117 L -88.073 -117.77753 L -88.073 -115.37716 L -75.951122 -113.87311 L -75.955288 -113.87311 L -94.59067 -116.18534 z M -38.004375 -113.87302 L -38.004375 -117.47848 L -34.898391 -116.70759 C -34.853601 -116.69648 -34.809181 -116.68761 -34.76559 -116.6813 C -34.111718 -116.58653 -33.604752 -117.02219 -33.604752 -117.70928 L -33.604752 -123.06761 C -33.604752 -123.80051 -34.181756 -124.53392 -34.898391 -124.71175 L -38.004375 -125.48264 L -38.004375 -126.69497 L -34.898391 -126.6951 C -32.859332 -126.6951 -31.195063 -124.96023 -31.195062 -122.96293 L -31.195062 -117.60512 C -31.195062 -115.60782 -32.859332 -113.87314 -34.898391 -113.87314 L -38.004375 -113.87302 z "
       transform="matrix(0.99227254,0.12407743,0,-1,-2.0833335e-7,-1.2291666e-6)" /><path
       id="f0"
       style="color:#000000;fill:#000000;-inkscape-stroke:none"
       d="m -94.88093,97.52824 v 0.795817 c 0,1.997293 1.664264,3.732683 3.703328,3.732683 l 32.793544,-6e-5 z"
       transform="matrix(0.99227254,-0.12407743,0,1,-2.0833335e-7,-1.2291666e-6)"
       inkscape:label="f0" /><g
       id="g16518"
       style="fill:none;fill-opacity:1"
       inkscape:label="g_dark"><rect
         style="display:inline;fill:none;fill-opacity:1;stroke:none;stroke-width:4.8;stroke-dasharray:none;stroke-opacity:1"
         id="shaft_whole"
         width="44.880817"
         height="88.512253"
         x="-84.991798"
         y="106.84913"
         rx="1.3229166"
         ry="1.3229167"
         inkscape:label="shaft_whole"
         transform="translate(-2.0833335e-7)" /><rect
         style="display:inline;fill:none;fill-opacity:1;stroke:#000000;stroke-width:4.8;stroke-dasharray:none;stroke-opacity:1"
         id="top_outter"
         width="107.96658"
         height="41.635834"
         x="-116.53468"
         y="65.265266"
         rx="1.3229166"
         ry="1.3229167"
         inkscape:label="top_outter"
         transform="translate(-2.0833335e-7)" /></g><path
       id="shaft_pierced"
       style="color:#000000;fill:#000000;-inkscape-stroke:none"
       d="M -83.668099 104.44929 C -85.689077 104.44929 -87.392419 106.15107 -87.392419 108.17206 L -87.392419 118.97502 L -82.591679 118.37506 L -82.591679 109.25003 L -42.511955 109.25003 L -42.511955 113.36348 L -37.710697 112.763 L -37.710697 108.17206 C -37.710697 106.15107 -39.412488 104.44929 -41.433467 104.44929 L -83.668099 104.44929 z M -37.710697 120.76716 L -42.511955 121.36764 L -42.511955 129.70976 L -37.710697 129.10928 L -37.710697 120.76716 z M -82.591679 126.37922 L -87.392419 126.97918 L -87.392419 135.32183 L -82.591679 134.72186 L -82.591679 126.37922 z M -37.710697 137.11396 L -42.511955 137.71444 L -42.511955 146.05657 L -37.710697 145.45609 L -37.710697 137.11396 z M -82.591679 142.72602 L -87.392419 143.32599 L -87.392419 151.66811 L -82.591679 151.06815 L -82.591679 142.72602 z M -37.710697 153.46025 L -42.511955 154.06073 L -42.511955 162.40338 L -37.710697 161.8029 L -37.710697 153.46025 z M -82.591679 159.07231 L -87.392419 159.67228 L -87.392419 168.01492 L -82.591679 167.41496 L -82.591679 159.07231 z M -37.710697 169.80706 L -42.511955 170.40754 L -42.511955 178.74967 L -37.710697 178.14919 L -37.710697 169.80706 z M -82.591679 175.41912 L -87.392419 176.01908 L -87.392419 184.36121 L -82.591679 183.76125 L -82.591679 175.41912 z M -37.710697 186.15335 L -42.511955 186.75383 L -42.511955 192.96068 L -82.591679 192.96068 L -82.591679 191.76541 L -87.392419 192.36537 L -87.392419 194.03917 C -87.392419 196.06015 -85.689077 197.76194 -83.668099 197.76194 L -41.433467 197.76194 C -39.412488 197.76194 -37.710697 196.06015 -37.710697 194.03917 L -37.710697 186.15335 z "
       inkscape:label="shaft_pierced" /><g
       id="g16514"
       style="fill:none;fill-opacity:1"
       inkscape:label="g_light"><rect
         style="display:inline;fill:none;stroke:#000000;stroke-width:4.81865;stroke-dasharray:none;stroke-opacity:1;fill-opacity:1"
         id="f5"
         width="58.867279"
         height="8.0042324"
         x="-92.47216"
         y="173.43369"
         rx="1.293565"
         ry="1.3229167"
         transform="matrix(0.99227254,-0.12407743,0,1,-2.0833335e-7,-1.2291666e-6)"
         inkscape:label="f5" /><rect
         style="display:inline;fill:none;stroke:#000000;stroke-width:4.81865;stroke-dasharray:none;stroke-opacity:1;fill-opacity:1"
         id="f4"
         width="58.867279"
         height="8.0042324"
         x="-92.47216"
         y="157.08708"
         rx="1.293565"
         ry="1.3229167"
         transform="matrix(0.99227254,-0.12407743,0,1,0,0)"
         inkscape:label="f4" /><rect
         style="display:inline;fill:none;stroke:#000000;stroke-width:4.81865;stroke-dasharray:none;stroke-opacity:1;fill-opacity:1"
         id="f3"
         width="58.867279"
         height="8.0042324"
         x="-92.47216"
         y="140.74049"
         rx="1.293565"
         ry="1.3229167"
         transform="matrix(0.99227254,-0.12407743,0,1,-2.0833335e-7,-1.2291666e-6)"
         inkscape:label="f3" /><rect
         style="display:inline;fill:none;stroke:#000000;stroke-width:4.81865;stroke-dasharray:none;stroke-opacity:1;fill-opacity:1"
         id="f2"
         width="58.867279"
         height="8.0042324"
         x="-92.47216"
         y="124.39389"
         rx="1.293565"
         ry="1.3229167"
         transform="matrix(0.99227254,-0.12407743,0,1,-2.0833335e-7,-1.2291666e-6)"
         inkscape:label="f2" /><rect
         style="display:inline;fill:none;fill-opacity:1;stroke:#000000;stroke-width:4.81865;stroke-dasharray:none;stroke-opacity:1"
         id="f1"
         width="58.867279"
         height="8.0042324"
         x="-92.47216"
         y="108.04728"
         rx="1.293565"
         ry="1.3229167"
         transform="matrix(0.99227254,-0.12407743,0,1,-2.0833335e-7,-1.2291666e-6)"
         inkscape:label="f1" /><rect
         style="display:inline;fill:none;fill-opacity:1;stroke:#000000;stroke-width:4.8;stroke-dasharray:none;stroke-opacity:1"
         id="top_mid"
         width="55.137505"
         height="41.635834"
         x="-90.120148"
         y="65.384277"
         rx="1.3229166"
         ry="1.3229167"
         inkscape:label="top_mid"
         transform="translate(-2.0833335e-7)" /></g></g><metadata
     id="metadata16066"><rdf:RDF><cc:Work
         rdf:about=""><cc:license
           rdf:resource="http://creativecommons.org/publicdomain/zero/1.0/" /><dc:title>Screw - schematic</dc:title><dc:creator><cc:Agent><dc:title>Robin Vobruba &lt;hoijui.quaero@gmail.com&gt;</dc:title></cc:Agent></dc:creator><dc:date>16.10.2023</dc:date><dc:identifier>screw_schematic</dc:identifier><dc:language>agnostic</dc:language><dc:subject><rdf:Bag><rdf:li>screw</rdf:li><rdf:li>schematic</rdf:li></rdf:Bag></dc:subject></cc:Work><cc:License
         rdf:about="http://creativecommons.org/publicdomain/zero/1.0/"><cc:permits
           rdf:resource="http://creativecommons.org/ns#Reproduction" /><cc:permits
           rdf:resource="http://creativecommons.org/ns#Distribution" /><cc:permits
           rdf:resource="http://creativecommons.org/ns#DerivativeWorks" /></cc:License></rdf:RDF></metadata></svg>
